<?xml version="1.0"?>
<svg xmlns="http://www.w3.org/2000/svg" height="512px" viewBox="0 0 512 512" width="512px"><g><g id="Outline"><path d="m480 449.376v-41.376a8 8 0 0 0 -8-8h-40v-312a8.008 8.008 0 0 0 -1.979-5.269l-3.32-3.793a184.293 184.293 0 0 0 -138.701-62.938h-56a184.3 184.3 0 0 0 -138.7 62.938l-3.32 3.793a8.008 8.008 0 0 0 -1.98 5.269v312h-40a8 8 0 0 0 -8 8v40a24 24 0 0 0 0 48h432a24 24 0 0 0 8-46.624zm-16-1.376h-32v-32h32zm-49.34-358.526 1.34 1.532v308.994h-40v-88h16v-16h-16v-152h16v-16h-16v-40a8.008 8.008 0 0 0 -1.979-5.269l-3.32-3.793a184.236 184.236 0 0 0 -60.376-45.449 168.3 168.3 0 0 1 104.335 55.985zm-310.66 1.532 1.34-1.531a168.3 168.3 0 0 1 253.32 0l1.34 1.531v36.994h-16v16h16v88h-16v16h16v152h-256zm-48 324.994h104v16h16v-16h240v32h-56v-16h-16v16h-288zm416 64h-432a8 8 0 0 1 0-16h432a8 8 0 0 1 0 16z" data-original="#000000" class="active-path" data-old_color="#000000" fill="#3F3F3F"/><path d="m168 168a8 8 0 0 0 8 8h32v80a8 8 0 0 0 8 8h32a8 8 0 0 0 8-8v-80h32a8 8 0 0 0 8-8v-32a8 8 0 0 0 -8-8h-32v-32a8 8 0 0 0 -8-8h-32a8 8 0 0 0 -8 8v32h-32a8 8 0 0 0 -8 8zm16-24h32a8 8 0 0 0 8-8v-32h16v32a8 8 0 0 0 8 8h32v16h-32a8 8 0 0 0 -8 8v80h-16v-80a8 8 0 0 0 -8-8h-32z" data-original="#000000" class="active-path" data-old_color="#000000" fill="#3F3F3F"/><path d="m144 296h32v16h-32z" data-original="#000000" class="active-path" data-old_color="#000000" fill="#3F3F3F"/><path d="m160 328h88v16h-88z" data-original="#000000" class="active-path" data-old_color="#000000" fill="#3F3F3F"/><path d="m192 296h128v16h-128z" data-original="#000000" class="active-path" data-old_color="#000000" fill="#3F3F3F"/><path d="m264 328h40v16h-40z" data-original="#000000" class="active-path" data-old_color="#000000" fill="#3F3F3F"/><path d="m120 136h24v16h-24z" data-original="#000000" class="active-path" data-old_color="#000000" fill="#3F3F3F"/><path d="m152 72h16v16h-16z" data-original="#000000" class="active-path" data-old_color="#000000" fill="#3F3F3F"/><path d="m128 360h16v16h-16z" data-original="#000000" class="active-path" data-old_color="#000000" fill="#3F3F3F"/></g></g> </svg>
